<svg xmlns="http://www.w3.org/2000/svg" xmlns:xlink="http://www.w3.org/1999/xlink" viewBox="0 0 613.33 621.93"><defs><style>.cls-1,.cls-27,.cls-4,.cls-9{fill:none;}.cls-2{isolation:isolate;}.cls-3{clip-path:url(#clip-path);}.cls-4{stroke:#552600;stroke-width:3px;}.cls-27,.cls-4,.cls-9{stroke-linecap:round;stroke-linejoin:round;}.cls-5{fill:#423700;}.cls-6{fill:#615400;}.cls-32,.cls-7{fill:#fff;}.cls-8{fill:#bfdaff;}.cls-11,.cls-12,.cls-8{opacity:0.5;}.cls-9{stroke:#bfdaff;}.cls-10{fill:#ffa347;}.cls-11,.cls-32{mix-blend-mode:overlay;}.cls-12{fill:#fff7eb;}.cls-13{fill:#9e0000;}.cls-14{fill:url(#linear-gradient);}.cls-15{fill:url(#linear-gradient-2);}.cls-16{fill:url(#linear-gradient-3);}.cls-17{fill:url(#linear-gradient-4);}.cls-18{fill:url(#linear-gradient-5);}.cls-19{fill:url(#linear-gradient-6);}.cls-20{fill:url(#linear-gradient-7);}.cls-21{fill:url(#linear-gradient-8);}.cls-22{fill:url(#linear-gradient-9);}.cls-23{fill:url(#linear-gradient-10);}.cls-24{fill:url(#linear-gradient-11);}.cls-25{fill:#552600;}.cls-26{fill:url(#linear-gradient-12);}.cls-27{stroke:#000;stroke-width:2px;}.cls-28{fill:url(#linear-gradient-13);}.cls-29{fill:url(#linear-gradient-14);}.cls-30{fill:url(#linear-gradient-15);}.cls-31{fill:url(#linear-gradient-16);}.cls-32{opacity:0.3;}</style><clipPath id="clip-path" transform="translate(-355.78 -4.86)"><rect class="cls-1" width="1323.69" height="694.94"/></clipPath><linearGradient id="linear-gradient" x1="404.18" y1="421.34" x2="413.03" y2="398.89" gradientTransform="translate(26.3 -42.15) rotate(3.93)" gradientUnits="userSpaceOnUse"><stop offset="0" stop-color="#ff6a1f"/><stop offset="1" stop-color="#ffc3a2"/></linearGradient><linearGradient id="linear-gradient-2" x1="406.91" y1="398.74" x2="404.13" y2="378.65" gradientTransform="translate(-38.49 50.53) rotate(-5.6)" xlink:href="#linear-gradient"/><linearGradient id="linear-gradient-3" x1="400.36" y1="415.11" x2="389.71" y2="380.42" gradientTransform="translate(1.24 -10.02) rotate(0.45)" xlink:href="#linear-gradient"/><linearGradient id="linear-gradient-4" x1="426.68" y1="429.88" x2="428.14" y2="398.85" xlink:href="#linear-gradient"/><linearGradient id="linear-gradient-5" x1="599.17" y1="480.67" x2="508.03" y2="398.25" xlink:href="#linear-gradient"/><linearGradient id="linear-gradient-6" x1="680.33" y1="402.38" x2="689.18" y2="379.93" gradientTransform="matrix(-1, 0.07, 0.07, 1, 1570.52, -42.15)" xlink:href="#linear-gradient"/><linearGradient id="linear-gradient-7" x1="682.42" y1="425.73" x2="679.63" y2="405.64" gradientTransform="matrix(-1, -0.1, -0.1, 1, 1635.31, 50.53)" xlink:href="#linear-gradient"/><linearGradient id="linear-gradient-8" x1="677.15" y1="412.96" x2="666.5" y2="378.26" gradientTransform="matrix(-1, 0.01, 0.01, 1, 1595.58, -10.02)" xlink:href="#linear-gradient"/><linearGradient id="linear-gradient-9" x1="702.83" y1="410.92" x2="704.29" y2="379.89" gradientTransform="matrix(-1, 0.07, 0.07, 1, 1570.52, -42.15)" xlink:href="#linear-gradient"/><linearGradient id="linear-gradient-10" x1="875.19" y1="461.72" x2="784.09" y2="379.33" gradientTransform="matrix(-1, 0.07, 0.07, 1, 1570.52, -42.15)" xlink:href="#linear-gradient"/><linearGradient id="linear-gradient-11" x1="662.97" y1="257.09" x2="659.2" y2="334.09" gradientTransform="matrix(1, 0, 0, 1, 0, 0)" xlink:href="#linear-gradient"/><linearGradient id="linear-gradient-12" x1="777.18" y1="547.72" x2="625.82" y2="606.25" gradientTransform="translate(1.49 -2.02) rotate(0.14)" xlink:href="#linear-gradient"/><linearGradient id="linear-gradient-13" x1="610.23" y1="547.33" x2="458.87" y2="605.87" gradientTransform="matrix(-1, 0, 0, 1, 1148.93, 0)" xlink:href="#linear-gradient"/><linearGradient id="linear-gradient-14" x1="610.91" y1="228.71" x2="611.08" y2="262.07" gradientTransform="matrix(1, 0, 0, 1, 0, 0)" xlink:href="#linear-gradient"/><linearGradient id="linear-gradient-15" x1="708.91" y1="228.22" x2="709.08" y2="261.57" gradientTransform="matrix(1, 0, 0, 1, 0, 0)" xlink:href="#linear-gradient"/><linearGradient id="linear-gradient-16" x1="660.54" y1="185.16" x2="659.77" y2="255.71" gradientTransform="matrix(1, 0, 0, 1, 0, 0)" xlink:href="#linear-gradient"/></defs><g class="cls-2"><g id="Layer_2" data-name="Layer 2"><g id="OBJECTS"><g class="cls-3"><g class="cls-3"><path class="cls-4" d="M728.13,595.88s3-30.87,12.63-74.69C759,438.37,800.89,309.3,891.22,254.85" transform="translate(-355.78 -4.86)"/><path class="cls-5" d="M943.28,223.5s-45.66,4.84-43.15,27C900.13,250.5,918.68,272.7,943.28,223.5Z" transform="translate(-355.78 -4.86)"/><path class="cls-6" d="M875,214.12s-22.9,33-3,42.09C871.92,256.21,895.42,256.21,875,214.12Z" transform="translate(-355.78 -4.86)"/><path class="cls-5" d="M925.86,275.94s-29.21-19.31-42.37-1.86C883.49,274.08,892,297.29,925.86,275.94Z" transform="translate(-355.78 -4.86)"/><path class="cls-5" d="M836.64,243.34s-16.85,36.45,4.3,42C840.94,285.32,864.08,281.25,836.64,243.34Z" transform="translate(-355.78 -4.86)"/><path class="cls-6" d="M903.42,297.29s-38-15.84-48,3.63C855.43,300.92,860.5,315.94,903.42,297.29Z" transform="translate(-355.78 -4.86)"/><path class="cls-6" d="M806.72,270.34s-12.7,44.28,9.09,46C815.81,316.3,840.46,302.78,806.72,270.34Z" transform="translate(-355.78 -4.86)"/><path class="cls-6" d="M875,326.39s-35.78-18.23-42.11,2.69C832.84,329.08,836,352.37,875,326.39Z" transform="translate(-355.78 -4.86)"/><path class="cls-6" d="M781.14,309.78s-10.3,43.29,11.34,40.22C792.48,350,809.68,332.45,781.14,309.78Z" transform="translate(-355.78 -4.86)"/><path class="cls-5" d="M853.9,355.24s-40.38-15.43-42,6.36C811.87,361.6,821.51,389,853.9,355.24Z" transform="translate(-355.78 -4.86)"/><path class="cls-4" d="M616,552.35S587.41,312.87,457.07,238.22" transform="translate(-355.78 -4.86)"/><path class="cls-6" d="M407.94,210.11s42.62,3.56,40.74,24.24C448.68,234.35,431.87,255.41,407.94,210.11Z" transform="translate(-355.78 -4.86)"/><path class="cls-6" d="M471.37,200s22,30.24,3.69,39.13C475.06,239.09,453.18,239.57,471.37,200Z" transform="translate(-355.78 -4.86)"/><path class="cls-6" d="M425.25,258.57s26.8-18.58,39.41-2.6C464.66,256,457.26,277.75,425.25,258.57Z" transform="translate(-355.78 -4.86)"/><path class="cls-5" d="M507.64,226.37s16.45,33.59-3.12,39.17C504.52,265.54,482.88,262.24,507.64,226.37Z" transform="translate(-355.78 -4.86)"/><path class="cls-5" d="M446.59,278s35.1-15.53,44.76,2.39C491.35,280.37,486.94,294.46,446.59,278Z" transform="translate(-355.78 -4.86)"/><path class="cls-6" d="M536.06,250.89s12.75,41-7.51,43C528.55,293.87,505.32,281.79,536.06,250.89Z" transform="translate(-355.78 -4.86)"/><path class="cls-6" d="M473.7,304.49s32.94-17.71,39.26,1.63C513,306.12,510.49,327.87,473.7,304.49Z" transform="translate(-355.78 -4.86)"/><path class="cls-6" d="M560.7,287.08s10.49,40.09-9.73,37.68C551,324.76,534.6,308.78,560.7,287.08Z" transform="translate(-355.78 -4.86)"/><path class="cls-5" d="M493.9,330.91s37.27-15.2,39.26,5C533.16,336,524.76,361.7,493.9,330.91Z" transform="translate(-355.78 -4.86)"/><path class="cls-7" d="M482.76,355.7c0,6.78-3.52,20.18-7.86,20.18S467,362.48,467,355.7s3.53-12.29,7.87-12.29S482.76,348.91,482.76,355.7Z" transform="translate(-355.78 -4.86)"/><path class="cls-7" d="M467,396.24c0-6.79,3.53-20.19,7.87-20.19s7.86,13.4,7.86,20.19-3.52,12.28-7.86,12.28S467,403,467,396.24Z" transform="translate(-355.78 -4.86)"/><path class="cls-7" d="M495.17,383.83c-6.79,0-20.19-3.52-20.19-7.86s13.4-7.86,20.19-7.86,12.28,3.52,12.28,7.86S502,383.83,495.17,383.83Z" transform="translate(-355.78 -4.86)"/><path class="cls-7" d="M454.63,368.11c6.78,0,20.18,3.52,20.18,7.86s-13.4,7.86-20.18,7.86-12.29-3.52-12.29-7.86S447.84,368.11,454.63,368.11Z" transform="translate(-355.78 -4.86)"/><path class="cls-8" d="M485.82,382.5a35.47,35.47,0,0,1-6.77-2.38,35.11,35.11,0,0,1,2.46,7.14,10.61,10.61,0,0,1-12.81-1.61,32.07,32.07,0,0,1,2.07-5.54,31.32,31.32,0,0,1-4.55,1.76,10.42,10.42,0,0,1-.71-3.79,10.61,10.61,0,0,1,2.88-7.27,25.37,25.37,0,0,1,2.38,1,24.37,24.37,0,0,1-1-2.28,10.68,10.68,0,0,1,6.37-2.11,10.44,10.44,0,0,1,4.29.9,29.15,29.15,0,0,1-1.4,3.49,28.41,28.41,0,0,1,4.21-1.67,10.59,10.59,0,0,1,2.57,12.33Z" transform="translate(-355.78 -4.86)"/><line class="cls-9" x1="93.08" y1="371.02" x2="144.98" y2="371.02"/><line class="cls-9" x1="119.03" y1="345.07" x2="119.03" y2="396.97"/><path class="cls-10" d="M483.4,376.05a8.59,8.59,0,1,1-8.59-8.58A8.59,8.59,0,0,1,483.4,376.05Z" transform="translate(-355.78 -4.86)"/><path class="cls-11" d="M483.4,376.06a8.59,8.59,0,0,1-17,1.82,7.41,7.41,0,1,0,10.22-10.21A8.57,8.57,0,0,1,483.4,376.06Z" transform="translate(-355.78 -4.86)"/><circle class="cls-12" cx="116.07" cy="368.72" r="2.46"/><path class="cls-7" d="M751.53,274.58c0,6.78-3.52,20.18-7.86,20.18s-7.87-13.4-7.87-20.18,3.52-12.29,7.87-12.29S751.53,267.79,751.53,274.58Z" transform="translate(-355.78 -4.86)"/><path class="cls-7" d="M735.8,315.11c0-6.78,3.52-20.18,7.87-20.18s7.86,13.4,7.86,20.18S748,327.4,743.67,327.4,735.8,321.9,735.8,315.11Z" transform="translate(-355.78 -4.86)"/><path class="cls-7" d="M763.94,302.71c-6.79,0-20.19-3.52-20.19-7.87s13.4-7.86,20.19-7.86,12.28,3.52,12.28,7.86S770.72,302.71,763.94,302.71Z" transform="translate(-355.78 -4.86)"/><path class="cls-7" d="M723.4,287c6.78,0,20.18,3.52,20.18,7.86s-13.4,7.87-20.18,7.87-12.29-3.52-12.29-7.87S716.61,287,723.4,287Z" transform="translate(-355.78 -4.86)"/><path class="cls-8" d="M754.59,301.37a35.48,35.48,0,0,1-6.77-2.37,34.9,34.9,0,0,1,2.46,7.14,10.61,10.61,0,0,1-12.81-1.61,32.51,32.51,0,0,1,2.07-5.55,31.31,31.31,0,0,1-4.55,1.77,10.43,10.43,0,0,1-.71-3.8,10.61,10.61,0,0,1,2.88-7.26,23,23,0,0,1,2.38,1,23.27,23.27,0,0,1-1-2.28,10.68,10.68,0,0,1,6.37-2.11,10.44,10.44,0,0,1,4.29.91,28.32,28.32,0,0,1-1.4,3.48,28.41,28.41,0,0,1,4.21-1.66,10.5,10.5,0,0,1,3.54,7.9A10.39,10.39,0,0,1,754.59,301.37Z" transform="translate(-355.78 -4.86)"/><line class="cls-9" x1="361.85" y1="289.9" x2="413.75" y2="289.9"/><line class="cls-9" x1="387.8" y1="263.95" x2="387.8" y2="315.85"/><path class="cls-10" d="M752.17,294.93a8.59,8.59,0,1,1-8.59-8.59A8.6,8.6,0,0,1,752.17,294.93Z" transform="translate(-355.78 -4.86)"/><path class="cls-11" d="M752.17,294.93a8.59,8.59,0,0,1-17,1.83,7.41,7.41,0,1,0,10.22-10.22A8.58,8.58,0,0,1,752.17,294.93Z" transform="translate(-355.78 -4.86)"/><path class="cls-12" d="M743.08,292.46a2.46,2.46,0,1,1-2.46-2.46A2.46,2.46,0,0,1,743.08,292.46Z" transform="translate(-355.78 -4.86)"/><path class="cls-7" d="M432.08,463.53c0,6.78-3.52,20.18-7.86,20.18s-7.87-13.4-7.87-20.18,3.52-12.28,7.87-12.28S432.08,456.75,432.08,463.53Z" transform="translate(-355.78 -4.86)"/><path class="cls-7" d="M416.35,504.07c0-6.79,3.52-20.18,7.87-20.18s7.86,13.39,7.86,20.18-3.52,12.28-7.86,12.28S416.35,510.85,416.35,504.07Z" transform="translate(-355.78 -4.86)"/><path class="cls-7" d="M444.49,491.66c-6.79,0-20.19-3.52-20.19-7.86s13.4-7.86,20.19-7.86,12.28,3.52,12.28,7.86S451.27,491.66,444.49,491.66Z" transform="translate(-355.78 -4.86)"/><path class="cls-7" d="M404,475.94c6.78,0,20.18,3.52,20.18,7.86s-13.4,7.86-20.18,7.86-12.29-3.52-12.29-7.86S397.16,475.94,404,475.94Z" transform="translate(-355.78 -4.86)"/><path class="cls-8" d="M435.14,490.33a35.47,35.47,0,0,1-6.77-2.38,35,35,0,0,1,2.46,7.15A10.64,10.64,0,0,1,418,493.48a32.07,32.07,0,0,1,2.07-5.54,31.32,31.32,0,0,1-4.55,1.76,10.42,10.42,0,0,1-.71-3.79,10.61,10.61,0,0,1,2.88-7.27c.85.32,1.65.67,2.38,1a24.37,24.37,0,0,1-1-2.28,10.67,10.67,0,0,1,10.66-1.21,28.49,28.49,0,0,1-1.4,3.49,28.41,28.41,0,0,1,4.21-1.67,10.59,10.59,0,0,1,2.57,12.33Z" transform="translate(-355.78 -4.86)"/><line class="cls-9" x1="42.4" y1="478.85" x2="94.3" y2="478.85"/><line class="cls-9" x1="68.35" y1="452.9" x2="68.35" y2="504.81"/><path class="cls-10" d="M432.72,483.89a8.59,8.59,0,1,1-8.59-8.59A8.59,8.59,0,0,1,432.72,483.89Z" transform="translate(-355.78 -4.86)"/><path class="cls-11" d="M432.72,483.89a8.59,8.59,0,0,1-17,1.82A7.41,7.41,0,1,0,426,475.5,8.57,8.57,0,0,1,432.72,483.89Z" transform="translate(-355.78 -4.86)"/><path class="cls-12" d="M423.63,481.41a2.46,2.46,0,1,1-2.46-2.46A2.46,2.46,0,0,1,423.63,481.41Z" transform="translate(-355.78 -4.86)"/><path class="cls-7" d="M588.81,160c0,6.78-3.52,20.18-7.87,20.18s-7.86-13.4-7.86-20.18,3.52-12.29,7.86-12.29S588.81,153.25,588.81,160Z" transform="translate(-355.78 -4.86)"/><path class="cls-7" d="M573.08,200.57c0-6.78,3.52-20.18,7.86-20.18s7.87,13.4,7.87,20.18-3.52,12.29-7.87,12.29S573.08,207.36,573.08,200.57Z" transform="translate(-355.78 -4.86)"/><path class="cls-7" d="M601.21,188.17c-6.78,0-20.18-3.52-20.18-7.87s13.4-7.86,20.18-7.86S613.5,176,613.5,180.3,608,188.17,601.21,188.17Z" transform="translate(-355.78 -4.86)"/><path class="cls-7" d="M560.67,172.44c6.79,0,20.19,3.52,20.19,7.86s-13.4,7.87-20.19,7.87-12.28-3.52-12.28-7.87S553.89,172.44,560.67,172.44Z" transform="translate(-355.78 -4.86)"/><path class="cls-8" d="M591.87,186.83a35.23,35.23,0,0,1-6.77-2.37,36.14,36.14,0,0,1,2.46,7.14A10.63,10.63,0,0,1,574.74,190a32.51,32.51,0,0,1,2.07-5.55,31.62,31.62,0,0,1-4.54,1.77,10.43,10.43,0,0,1-.71-3.8,10.61,10.61,0,0,1,2.88-7.26c.84.32,1.65.66,2.37,1a23.3,23.3,0,0,1-1-2.28,10.67,10.67,0,0,1,6.36-2.11,10.49,10.49,0,0,1,4.3.91,26.81,26.81,0,0,1-1.41,3.48,29.31,29.31,0,0,1,4.21-1.66,10.56,10.56,0,0,1,2.58,12.32Z" transform="translate(-355.78 -4.86)"/><line class="cls-9" x1="199.12" y1="175.36" x2="251.03" y2="175.36"/><line class="cls-9" x1="225.08" y1="149.41" x2="225.08" y2="201.31"/><path class="cls-10" d="M589.44,180.39a8.59,8.59,0,1,1-8.58-8.59A8.59,8.59,0,0,1,589.44,180.39Z" transform="translate(-355.78 -4.86)"/><path class="cls-11" d="M589.44,180.39a8.58,8.58,0,0,1-17,1.83A7.4,7.4,0,1,0,582.68,172,8.56,8.56,0,0,1,589.44,180.39Z" transform="translate(-355.78 -4.86)"/><circle class="cls-12" cx="222.12" cy="173.06" r="2.46"/><path class="cls-7" d="M907.89,504.69c0,6.78-3.52,20.18-7.86,20.18s-7.86-13.4-7.86-20.18,3.52-12.29,7.86-12.29S907.89,497.9,907.89,504.69Z" transform="translate(-355.78 -4.86)"/><path class="cls-7" d="M892.17,545.23c0-6.79,3.52-20.19,7.86-20.19s7.86,13.4,7.86,20.19-3.52,12.28-7.86,12.28S892.17,552,892.17,545.23Z" transform="translate(-355.78 -4.86)"/><path class="cls-7" d="M920.3,532.82c-6.79,0-20.18-3.52-20.18-7.86s13.39-7.87,20.18-7.87,12.28,3.52,12.28,7.87S927.08,532.82,920.3,532.82Z" transform="translate(-355.78 -4.86)"/><path class="cls-7" d="M879.76,517.09c6.78,0,20.18,3.52,20.18,7.87s-13.4,7.86-20.18,7.86-12.29-3.52-12.29-7.86S873,517.09,879.76,517.09Z" transform="translate(-355.78 -4.86)"/><path class="cls-8" d="M911,531.49a36.17,36.17,0,0,1-6.77-2.38,34.9,34.9,0,0,1,2.46,7.14,10.61,10.61,0,0,1-12.81-1.61,32.07,32.07,0,0,1,2.07-5.54,31.32,31.32,0,0,1-4.55,1.76,10.63,10.63,0,0,1,2.17-11.06,23,23,0,0,1,2.38,1,24.37,24.37,0,0,1-1-2.28,10.69,10.69,0,0,1,6.37-2.12,10.44,10.44,0,0,1,4.29.91,27.57,27.57,0,0,1-1.4,3.49,27.77,27.77,0,0,1,4.21-1.67A10.59,10.59,0,0,1,911,531.49Z" transform="translate(-355.78 -4.86)"/><line class="cls-9" x1="518.21" y1="520.01" x2="570.11" y2="520.01"/><line class="cls-9" x1="544.16" y1="494.06" x2="544.16" y2="545.96"/><circle class="cls-10" cx="899.94" cy="525.04" r="8.59" transform="translate(-463.45 785.28) rotate(-45)"/><path class="cls-11" d="M908.53,525a8.58,8.58,0,0,1-17,1.83,7.4,7.4,0,1,0,10.21-10.21A8.57,8.57,0,0,1,908.53,525Z" transform="translate(-355.78 -4.86)"/><path class="cls-12" d="M899.44,522.57a2.46,2.46,0,1,1-2.46-2.46A2.46,2.46,0,0,1,899.44,522.57Z" transform="translate(-355.78 -4.86)"/><path class="cls-13" d="M434.22,333s-32.08-2.82-31.57-16.15c.44-11.41,18.72-6.93,18.72-6.93s-.13-16.15,12.57-13.62C447.39,298.94,434.22,333,434.22,333Z" transform="translate(-355.78 -4.86)"/><path class="cls-13" d="M822.61,416.14s-14.88-13.32-9.67-19.76c4.45-5.5,11.87,3.52,11.87,3.52s5.94-8.07,11.31-2.1C841.8,404.14,822.61,416.14,822.61,416.14Z" transform="translate(-355.78 -4.86)"/><path class="cls-13" d="M781.91,170.13H764.47V188H739.56v-17.9H722.12V146.38h17.44v-18h24.91v18h17.44Z" transform="translate(-355.78 -4.86)"/><path class="cls-14" d="M396.14,392.52s5.39-4.3,10.58-8,14.6,1,14.6,1-1.93,5-5.06,4.48c-4.87-.87-7.37,6.46-8.87,9.51C405.73,402.82,402.63,399.8,396.14,392.52Z" transform="translate(-355.78 -4.86)"/><path class="cls-15" d="M407.63,416.25l-20-38a1.43,1.43,0,0,1,1.32-2.1,12.18,12.18,0,0,1,8.71,3.76c4.19,4.72,19,29.83,19,29.83Z" transform="translate(-355.78 -4.86)"/><path class="cls-16" d="M400.37,411.83l-23-35.72a1.7,1.7,0,0,1,1.41-2.62,11.92,11.92,0,0,1,8.46,3c4.59,4.35,21.48,28.08,21.48,28.08Z" transform="translate(-355.78 -4.86)"/><path class="cls-17" d="M426.82,408.06s4.63-5.15,5-11.53-10.67-11-10.67-11-2.45,4.32-.19,6.56c1.06,1.06-2.7,9-4,12.7C415.6,408.94,417,408.89,426.82,408.06Z" transform="translate(-355.78 -4.86)"/><path class="cls-18" d="M551.84,344l-35.59,89.52L410.82,400.11c-6.95,3.12-15.46-8.09-22.59-16.4-2.7-3.15-7.54-5.81-11.72-5.73a2.16,2.16,0,0,0-1.75,3.42L388,399.62c13,17.86,14.86,24.57,36.27,28.34,0,0,68.75,67.85,112.63,64.11,17.45-1.49,43.58-64.21,43.58-64.21S613.32,287.68,551.84,344Z" transform="translate(-355.78 -4.86)"/><path class="cls-11" d="M580.51,427.85s-5.22,12.54-12.56,26.52C548,421.6,550.07,353.94,550.3,347.9v0l1.53-3.85C613.32,287.68,580.51,427.85,580.51,427.85Z" transform="translate(-355.78 -4.86)"/><path class="cls-19" d="M923.87,392.52s-5.4-4.3-10.59-8-14.59,1-14.59,1,1.93,5,5.06,4.48c4.87-.87,7.37,6.46,8.87,9.51C914.28,402.82,917.38,399.8,923.87,392.52Z" transform="translate(-355.78 -4.86)"/><path class="cls-20" d="M912.38,416.25l20-38a1.43,1.43,0,0,0-1.31-2.1,12.16,12.16,0,0,0-8.71,3.76c-4.19,4.72-19,29.83-19,29.83Z" transform="translate(-355.78 -4.86)"/><path class="cls-21" d="M919.63,411.83l23-35.72a1.7,1.7,0,0,0-1.41-2.62,11.94,11.94,0,0,0-8.47,3c-4.58,4.35-21.47,28.08-21.47,28.08Z" transform="translate(-355.78 -4.86)"/><path class="cls-22" d="M893.18,408.06s-4.62-5.15-5-11.53,10.67-11,10.67-11,2.45,4.32.19,6.56c-1.06,1.06,2.69,9,4,12.7C904.41,408.94,903,408.89,893.18,408.06Z" transform="translate(-355.78 -4.86)"/><path class="cls-23" d="M768.17,344l35.59,89.52,105.43-33.43c6.95,3.12,15.46-8.09,22.59-16.4,2.7-3.15,7.54-5.81,11.72-5.73a2.16,2.16,0,0,1,1.75,3.42L932,399.62c-13,17.86-14.86,24.57-36.27,28.34,0,0-68.75,67.85-112.63,64.11C765.63,490.58,741,427.86,741,427.86S706.69,287.68,768.17,344Z" transform="translate(-355.78 -4.86)"/><path class="cls-11" d="M751.61,451.7C745.32,438.84,741,427.87,741,427.87S706.68,287.68,768.18,344l1.56,3.92C770.39,354.44,777.23,428.94,751.61,451.7Z" transform="translate(-355.78 -4.86)"/><path class="cls-24" d="M690.79,308.45c-18-13.25,0-41.88,0-41.88H629.22s18,28.63,0,41.88-21.53,9.21-21.53,9.21,25.1,40.9,52.31,40.9,52.31-40.9,52.31-40.9S708.84,321.7,690.79,308.45Z" transform="translate(-355.78 -4.86)"/><path class="cls-11" d="M686.91,304.71a35.81,35.81,0,0,1-14.54,3c-18.55-.21-29.55-11.67-35.8-22.44a61.11,61.11,0,0,0-7.35-18.66h61.57S675.71,290.48,686.91,304.71Z" transform="translate(-355.78 -4.86)"/><path class="cls-6" d="M769.16,345c-4.69-24.66-59.43-27.32-59.43-27.32L660,358.56l-49.72-40.9s-54.75,2.66-59.43,27.32,34.94,96.77,34.94,96.77L568,496.83s9.59,38.84,92,38.84,92-38.84,92-38.84l-17.8-55.08S773.85,369.64,769.16,345Z" transform="translate(-355.78 -4.86)"/><path class="cls-11" d="M604.09,443.64H715.92S654.23,494.21,604.09,443.64Z" transform="translate(-355.78 -4.86)"/><path class="cls-7" d="M721.2,318.84c-7.38,20.61-24.61,54-58.82,54s-53-33.76-61.22-54.35c5.47-.69,9.12-.86,9.12-.86L660,358.56l49.73-40.89S714.44,317.89,721.2,318.84Z" transform="translate(-355.78 -4.86)"/><path class="cls-11" d="M752,496.84s-9.58,38.82-92,38.82a211.53,211.53,0,0,1-28.52-1.8c59.81-19.64,102.74-92.11,102.74-92.11Z" transform="translate(-355.78 -4.86)"/><path class="cls-25" d="M817.31,495.36c-46.36-8.78-60.6-3.05-95.37,7.26a228.24,228.24,0,0,1-129.74,0c-34.77-10.31-41.82-17.51-88.18-8.73-98.3,18.63-.38,114.62,153.05,114.62S915.61,514,817.31,495.36Z" transform="translate(-355.78 -4.86)"/><path class="cls-11" d="M817.31,574.21c-41.79,19.31-99.67,34.31-160.25,34.31-59,0-115.45-14.24-157-32.81,8.07-44.38,74.05-62.32,96.08-47.27,16.8,11.49,36.42,10.72,49.17,8.38a74.36,74.36,0,0,1,27,0c12.75,2.34,32.37,3.11,49.17-8.38C743.3,513.56,808,531.09,817.31,574.21Z" transform="translate(-355.78 -4.86)"/><path class="cls-13" d="M673.89,570.73s-20.26,44,28.29,51.23a37.75,37.75,0,0,0,11.44-28.44C712.84,575.75,673.89,570.73,673.89,570.73Z" transform="translate(-355.78 -4.86)"/><path class="cls-26" d="M522,626.4s80.21-2.38,120.36-6.79,152.83-18.29,190.25-55.53-5.4-70.15-43.39-65.74S684.6,570.8,655.59,583s-44.58-6.55-58.34-2.08c-8.32,2.71-24.35,26.19-67.27,26.27C511.41,607.19,522,626.4,522,626.4Z" transform="translate(-355.78 -4.86)"/><path class="cls-11" d="M680,614.86c10.55-20.79-6.15-42.77-6.15-42.77h0c42.91-19.65,58.31,6.25,63.62,32.29C717.51,608.94,697.42,612.33,680,614.86Z" transform="translate(-355.78 -4.86)"/><path class="cls-25" d="M846.56,540.61a.06.06,0,0,0,0,0,62.84,62.84,0,0,1-5,12.4C812,608.66,702.18,622,702.18,622a36.51,36.51,0,0,0,1.25-10.8c-1-28.47-29.54-39-29.54-39v0C707,549,757.89,502,789.24,498.35,818.91,494.89,851.54,514.23,846.56,540.61Z" transform="translate(-355.78 -4.86)"/><path class="cls-11" d="M844.81,545.88a61.76,61.76,0,0,1-3.26,7.17C812,608.66,702.18,622,702.18,622a36.51,36.51,0,0,0,1.25-10.8A39.34,39.34,0,0,0,697.15,591a69.41,69.41,0,0,1,21.52-9.82s62.77,10.31,92.36-10.11S829.38,529.08,844.81,545.88Z" transform="translate(-355.78 -4.86)"/><path class="cls-27" d="M697.24,554.62s50.09-45.06,84.49-54.71" transform="translate(-355.78 -4.86)"/><path class="cls-27" d="M757.25,502.46S745,511.19,743.67,519" transform="translate(-355.78 -4.86)"/><path class="cls-11" d="M603.72,622.71c-13.1.82-26.68,1.51-38.92,2.06a30.77,30.77,0,0,1-29.32-17.59l-.08-.17c18-.89,31-6,40.39-11.55Z" transform="translate(-355.78 -4.86)"/><path class="cls-13" d="M642.1,570.75s20.15,44-28.41,51.16a37.75,37.75,0,0,1-11.37-28.46C603.14,575.67,642.1,570.75,642.1,570.75Z" transform="translate(-355.78 -4.86)"/><path class="cls-28" d="M793.83,626.79s-80.19-2.57-120.34-7.08-152.78-18.66-190.11-56,5.58-70.14,43.55-65.63S631.39,570.8,660.37,583s44.6-6.43,58.35-1.93c8.31,2.73,24.28,26.25,67.2,26.44C804.5,607.61,793.83,626.79,793.83,626.79Z" transform="translate(-355.78 -4.86)"/><path class="cls-11" d="M635.85,614.87c-10.5-20.82,6.25-42.75,6.25-42.75h0c-42.86-19.76-58.33,6.1-63.69,32.13C598.39,608.86,618.47,612.3,635.85,614.87Z" transform="translate(-355.78 -4.86)"/><path class="cls-25" d="M469.5,540.21s0,0,0,0a62.23,62.23,0,0,0,5,12.41c29.41,55.69,139.2,69.25,139.2,69.25a36.44,36.44,0,0,1-1.23-10.8c1.1-28.47,29.64-39,29.64-39v0c-33.07-23.22-83.83-70.33-115.17-74C497.27,494.55,464.59,513.82,469.5,540.21Z" transform="translate(-355.78 -4.86)"/><path class="cls-27" d="M532.65,499.18s24.76,6.09,45.74,24.67" transform="translate(-355.78 -4.86)"/><path class="cls-27" d="M555.56,500.8s12.36,9.07,12.36,14.91" transform="translate(-355.78 -4.86)"/><path class="cls-29" d="M622.18,242c2.36,8.82,2,16.66-4.32,18.58s-16.25-2.81-18.61-11.64.86-17.53,7.19-19.45S619.81,233.21,622.18,242Z" transform="translate(-355.78 -4.86)"/><path class="cls-27" d="M602.18,244s-.5-8.51,4.5-8.51,10.55,13.65,5.07,19.84" transform="translate(-355.78 -4.86)"/><line class="cls-27" x1="252.31" y1="244.01" x2="257.22" y2="237.79"/><path class="cls-30" d="M697.83,242c-2.36,8.82-2,16.66,4.31,18.58s16.25-2.81,18.62-11.64-.86-17.53-7.19-19.45S700.19,233.21,697.83,242Z" transform="translate(-355.78 -4.86)"/><path class="cls-27" d="M717.83,244s.5-8.51-4.5-8.51-10.55,13.65-5.07,19.84" transform="translate(-355.78 -4.86)"/><line class="cls-27" x1="356.14" y1="244.01" x2="351.23" y2="237.79"/><path class="cls-31" d="M704.15,234.26c0,24.38-19.77,57.08-44.15,57.08s-44.14-32.7-44.14-57.08a44.15,44.15,0,0,1,88.29,0Z" transform="translate(-355.78 -4.86)"/><path class="cls-27" d="M683.7,238.81a10.86,10.86,0,0,1-7.86,3.84,6.57,6.57,0,0,1-6.29-3.84" transform="translate(-355.78 -4.86)"/><path class="cls-27" d="M636.31,238.81a10.86,10.86,0,0,0,7.86,3.84,6.57,6.57,0,0,0,6.29-3.84" transform="translate(-355.78 -4.86)"/><path class="cls-27" d="M657.12,252.06s8.86-2.84,11.55.58-6.54,6.73-6.54,6.73" transform="translate(-355.78 -4.86)"/><line class="cls-27" x1="304.57" y1="240.9" x2="305.34" y2="246.1"/><path class="cls-27" d="M648.37,266.73a17.89,17.89,0,0,0,12.36,4.65,24.11,24.11,0,0,0,13.74-4.65" transform="translate(-355.78 -4.86)"/><path d="M635.09,229.23a1.44,1.44,0,0,0,1.39,2.38c3.23-.77,8.74-1.76,12.88-.81a1.77,1.77,0,0,0,2.16-1.73c0-1.35-.27-2.86-1.39-3.24C648.38,225.24,638.65,225.21,635.09,229.23Z" transform="translate(-355.78 -4.86)"/><path d="M684.65,229.23a1.44,1.44,0,0,1-1.39,2.38c-3.23-.77-8.74-1.76-12.88-.81a1.77,1.77,0,0,1-2.16-1.73c0-1.35.27-2.86,1.39-3.24C671.36,225.24,681.09,225.21,684.65,229.23Z" transform="translate(-355.78 -4.86)"/><path d="M614.67,346.93c7.41-13.43,12.45-88,7.12-114.41,0,0,31.27-9.36,38.21-36.49,0,0,13.68,29.18,39,34.74-6.19,21.72-.63,98.42,5.27,116.16,0,0,2.77-103.26,2.77-132.71,0-8.1-3.55-15.13-8.7-21.06-18.27-21-50.24-22.56-71.71-4.82-7.65,6.32-13.59,13.87-13.59,22.08C613,233.55,614.67,346.93,614.67,346.93Z" transform="translate(-355.78 -4.86)"/><path class="cls-32" d="M645.77,253.65c0,3.36-4.73,6.09-10.57,6.09s-10.57-2.73-10.57-6.09,4.73-6.08,10.57-6.08S645.77,250.29,645.77,253.65Z" transform="translate(-355.78 -4.86)"/><path class="cls-32" d="M695.38,253.65c0,3.36-4.73,6.09-10.57,6.09s-10.58-2.73-10.58-6.09,4.74-6.08,10.58-6.08S695.38,250.29,695.38,253.65Z" transform="translate(-355.78 -4.86)"/><path class="cls-10" d="M817.31,172.4a3.57,3.57,0,1,1-3.57-3.57A3.56,3.56,0,0,1,817.31,172.4Z" transform="translate(-355.78 -4.86)"/><path class="cls-10" d="M449,23.9a3.57,3.57,0,1,1-3.56-3.56A3.56,3.56,0,0,1,449,23.9Z" transform="translate(-355.78 -4.86)"/><path class="cls-10" d="M641.85,168.83a3.57,3.57,0,1,1-3.57-3.57A3.57,3.57,0,0,1,641.85,168.83Z" transform="translate(-355.78 -4.86)"/><path class="cls-7" d="M779.78,234.75a3.57,3.57,0,1,1-3.57-3.57A3.57,3.57,0,0,1,779.78,234.75Z" transform="translate(-355.78 -4.86)"/><path class="cls-7" d="M710.53,184.15a3.57,3.57,0,1,1-3.57-3.57A3.56,3.56,0,0,1,710.53,184.15Z" transform="translate(-355.78 -4.86)"/><path class="cls-10" d="M509.26,100.21a3.57,3.57,0,1,1-3.57-3.57A3.57,3.57,0,0,1,509.26,100.21Z" transform="translate(-355.78 -4.86)"/><path class="cls-7" d="M877.14,23.9a3.57,3.57,0,1,1-3.57-3.56A3.57,3.57,0,0,1,877.14,23.9Z" transform="translate(-355.78 -4.86)"/><path class="cls-7" d="M737.28,22.2a3.57,3.57,0,1,1-3.57-3.57A3.56,3.56,0,0,1,737.28,22.2Z" transform="translate(-355.78 -4.86)"/><path class="cls-7" d="M969.11,8.42a3.57,3.57,0,1,1-3.57-3.56A3.57,3.57,0,0,1,969.11,8.42Z" transform="translate(-355.78 -4.86)"/><path class="cls-10" d="M694.35,211a3.57,3.57,0,1,1-3.56-3.57A3.56,3.56,0,0,1,694.35,211Z" transform="translate(-355.78 -4.86)"/><path class="cls-10" d="M590.69,233.47a3.57,3.57,0,1,1-3.57-3.57A3.56,3.56,0,0,1,590.69,233.47Z" transform="translate(-355.78 -4.86)"/><path class="cls-7" d="M799.58,103.77a3.57,3.57,0,1,1-3.57-3.56A3.57,3.57,0,0,1,799.58,103.77Z" transform="translate(-355.78 -4.86)"/><path class="cls-10" d="M594.26,8.93a3.57,3.57,0,1,1-3.57-3.57A3.57,3.57,0,0,1,594.26,8.93Z" transform="translate(-355.78 -4.86)"/><path class="cls-7" d="M574.21,124.8a3.57,3.57,0,1,1-3.56-3.56A3.56,3.56,0,0,1,574.21,124.8Z" transform="translate(-355.78 -4.86)"/><path class="cls-7" d="M517.67,186a3.57,3.57,0,1,1-3.56-3.57A3.56,3.56,0,0,1,517.67,186Z" transform="translate(-355.78 -4.86)"/><path class="cls-7" d="M362.91,65.73a3.57,3.57,0,1,1-3.56-3.56A3.57,3.57,0,0,1,362.91,65.73Z" transform="translate(-355.78 -4.86)"/><path class="cls-10" d="M700.05,132.71a3.57,3.57,0,1,1-3.56-3.56A3.56,3.56,0,0,1,700.05,132.71Z" transform="translate(-355.78 -4.86)"/><path class="cls-10" d="M946.85,64a3.57,3.57,0,1,1-3.57-3.57A3.56,3.56,0,0,1,946.85,64Z" transform="translate(-355.78 -4.86)"/></g></g></g></g></g></svg>